<?xml version="1.0" encoding="utf-8"?>
<!-- Generator: Adobe Illustrator 19.0.0, SVG Export Plug-In . SVG Version: 6.00 Build 0)  -->
<svg version="1.1" id="Isolation_Mode" xmlns="http://www.w3.org/2000/svg" xmlns:xlink="http://www.w3.org/1999/xlink" x="0px"
	 y="0px" viewBox="0 0 135 135" style="enable-background:new 0 0 135 135;" xml:space="preserve">
<g>
	<g>
		<g>
			<path d="M67.5,135c-8.1,0-16.2-1.5-24-4.4C13.3,119.1-4.6,87.7,1,55.8c0.2-1.4,1.5-2.3,2.9-2c1.4,0.2,2.3,1.5,2,2.9
				c-5.2,29.5,11.3,58.6,39.3,69.2c15.6,5.9,32.6,5.4,47.8-1.4c15.2-6.8,26.9-19.2,32.8-34.8c5.9-15.6,5.4-32.6-1.4-47.8
				c-6.8-15.2-19.2-26.9-34.8-32.8C62.7-1.2,32.4,8.3,16.1,32c-0.8,1.1-2.3,1.4-3.5,0.6c-1.1-0.8-1.4-2.3-0.6-3.5
				C29.6,3.5,62.3-6.6,91.5,4.4c16.8,6.4,30.2,19,37.6,35.4c7.4,16.4,7.9,34.8,1.5,51.6c-6.4,16.8-19,30.2-35.4,37.6
				C86.3,133,76.9,135,67.5,135z"/>
		</g>
	</g>
	<g>
		<g>
			<g>
				<g>
					<path d="M52,77.4v-36c0-0.9,0.5-1.7,1.3-2.2c0.8-0.4,1.7-0.4,2.5,0L101,65.4c0.8,0.4,1.3,1.3,1.3,2.2c0,0.9-0.5,1.7-1.3,2.2
						L55.8,95.8c-0.4,0.2-0.8,0.3-1.3,0.3c-0.4,0-0.9-0.1-1.3-0.3c-0.8-0.4-1.3-1.3-1.3-2.2V74.7"/>
				</g>
			</g>
		</g>
	</g>
	<circle cx="7.7" cy="42.9" r="2.5"/>
</g>
</svg>
