<?xml version="1.0" encoding="utf-8"?>
<!-- Generator: Adobe Illustrator 19.0.0, SVG Export Plug-In . SVG Version: 6.00 Build 0)  -->
<svg version="1.1" id="Layer_1" xmlns="http://www.w3.org/2000/svg" xmlns:xlink="http://www.w3.org/1999/xlink" x="0px" y="0px"
	 viewBox="-72.8 316 534.9 197.7" style="enable-background:new -72.8 316 534.9 197.7;" xml:space="preserve">
<style type="text/css">
	.st0{fill:#EC1C39;}
	.st1{fill:#808184;}
</style>
<path class="st0" d="M51.2,318.8c-24.5,0-29.2,14.3-36.5,24.8c0,0-19.9,30.1-27.4,41.5l-16.3-66.3h-43.8l27.6,111.1
	c5.7,19.8,22,18.6,22,18.6c11.1,0,19.5-5.9,27.1-17l74.5-112.7C78.3,318.8,52.2,318.8,51.2,318.8z"/>
<path class="st0" d="M278.9,318.8c-24.5,0-29.2,14.3-36.5,24.8c0,0-19.9,30.1-27.4,41.5l-16.3-66.3h-43.8l27.6,111.1
	c5.7,19.8,22,18.6,22,18.6c11.1,0,19.5-5.9,27.1-17L306,318.8C306,318.8,279.9,318.8,278.9,318.8z"/>
<path class="st0" d="M435,318.8c-19.9,0-23.1,14.6-26.3,24.8c-3.2,10.2-24.4,86.3-24.4,86.3c13.9,19.8,29.6,18.6,29.6,18.6
	c11.1,0,17.1-5.9,20.1-17l28.1-112.7C462.1,318.8,436,318.8,435,318.8z"/>
<path class="st0" d="M118.9,318.8c-24.5,0-29.2,14.3-36.5,24.8c0,0-59.9,86.3-59.9,86.3c5.7,19.8,22,18.6,22,18.6
	c11.1,0,19.5-5.9,27.1-17l74.5-112.7C146.1,318.8,120,318.8,118.9,318.8z"/>
<g>
	<path class="st0" d="M283.7,390.2c1.3-38.5,35.1-74.3,78-74.2c39.4,0,62.2,25.8,61,59.4c-1.3,38.8-35.1,74.5-78.2,74.5
		C305.4,449.8,282.6,424.1,283.7,390.2z M392.8,376.8c0.6-14.9-10.1-24.5-26.6-24.5c-22,0-37.8,19.4-38.5,36.5
		c-0.6,15.2,10.1,24.7,26.6,24.7C376.3,413.5,392,394.2,392.8,376.8z"/>
</g>
<g>
	<path class="st1" d="M-27,513.1h-7.6l-11.2-19.9l0.2,19.9h-7V484h8.2l10.6,18.8L-34,484h7V513.1z"/>
	<path class="st1" d="M47.7,513.1H37.3c-2.2,0-4-0.2-5.2-0.6c-1.3-0.4-2.6-1-3.8-2c-1.5-1.3-2.6-2.8-3.3-4.7
		c-0.7-1.9-1.1-4.2-1.1-6.8c0-5.1,1.1-8.9,3.3-11.4c2.2-2.5,5.6-3.7,10.3-3.7h10.3v5.9H37.5c-1.9,0-3.4,0.5-4.4,1.4
		c-1,1-1.6,2.3-1.7,4.1l16.2,0v5.9H31.4c0,1,0.1,1.8,0.4,2.6c0.2,0.7,0.5,1.3,1,1.8c1,1,2.5,1.5,4.7,1.5h10.2V513.1z"/>
	<path class="st1" d="M122,489.9h-9.1v23.2h-7l0-23.2h-9V484H122V489.9z"/>
	<path class="st1" d="M213.2,484l-9,29.2h-7.9l-5.6-19.6l-4.8,19.6h-7.9l-9.6-29.2h7.4l6,20.3l5.1-20.3h7.7l5.9,20.3l5.6-20.3H213.2
		z"/>
	<path class="st1" d="M289.8,498.5c0,5.1-1.2,8.9-3.6,11.4c-2.4,2.5-6,3.8-10.8,3.8c-5,0-8.6-1.3-10.9-3.8s-3.5-6.4-3.5-11.7
		c0-5,1.2-8.7,3.6-11.2c2.3-2.4,6-3.6,10.8-3.6s8.5,1.2,10.9,3.7C288.6,489.7,289.8,493.5,289.8,498.5z M282.4,498.5
		c0-3.2-0.6-5.6-1.7-7.1c-1.1-1.5-2.9-2.2-5.3-2.2c-2.3,0-4.1,0.7-5.3,2.2c-0.6,0.8-1,1.7-1.3,2.9s-0.4,2.5-0.4,4
		c0,3.3,0.6,5.8,1.7,7.3c1.1,1.5,2.9,2.3,5.3,2.3c2.3,0,4.1-0.8,5.3-2.3C281.8,504.1,282.4,501.7,282.4,498.5z"/>
	<path class="st1" d="M367.6,513.1h-7.8l-6.1-11h-6.1v11h-6.8V484h14.9c3.5,0,6.1,0.7,7.7,2.2c1.7,1.4,2.5,3.7,2.5,6.8
		c0,2.3-0.5,4.1-1.5,5.6c-0.9,1.3-2.2,2.2-3.8,2.7L367.6,513.1z M359,493c0-1.1-0.3-1.9-0.9-2.3c-0.7-0.4-2-0.7-3.8-0.7h-6.7v6.1
		h6.7c1.8,0,3.1-0.2,3.8-0.7C358.7,494.9,359,494.1,359,493z"/>
	<path class="st1" d="M443.4,513.1h-8.8l-9.9-13v13h-6.8V484h6.8v12.6l10.2-12.6h8.3l-11.6,14.2L443.4,513.1z"/>
</g>
</svg>
